<svg xmlns="http://www.w3.org/2000/svg" version="1.1" xmlns:xlink="http://www.w3.org/1999/xlink" viewBox="0 0 200 200"><rect width="200" height="200" fill="url('#gradient')"></rect><defs><linearGradient id="gradient" gradientTransform="rotate(45 0.5 0.5)"><stop offset="0%" stop-color="#d15c22"></stop><stop offset="100%" stop-color="#f107a3"></stop></linearGradient></defs><g><g fill="#000000" transform="matrix(11.64739336492891,0,0,11.64739336492891,-8.496874784293325,181.76618051664525)" stroke="#000000" stroke-width="0.6"><path d="M6.85 0L1.07 0L1.07-14.22L6.18-14.22Q8.93-14.22 10.36-13.21Q11.79-12.21 11.79-10.29L11.79-10.29Q11.79-9.19 11.28-8.41Q10.77-7.63 9.79-7.26L9.79-7.26Q10.90-6.96 11.49-6.16Q12.09-5.36 12.09-4.21L12.09-4.21Q12.09-2.12 10.77-1.07Q9.44-0.02 6.85 0L6.85 0ZM6.90-6.04L4.50-6.04L4.50-2.64L6.75-2.64Q7.68-2.64 8.17-3.06Q8.67-3.49 8.67-4.26L8.67-4.26Q8.67-6.04 6.90-6.04L6.90-6.04ZM4.50-11.57L4.50-8.29L6.29-8.29Q7.41-8.30 7.89-8.70Q8.37-9.10 8.37-9.88L8.37-9.88Q8.37-10.78 7.85-11.18Q7.33-11.57 6.18-11.57L6.18-11.57L4.50-11.57ZM17.51-14.22L17.09-4.50L14.42-4.50L14.00-14.22L17.51-14.22ZM13.91-1.47L13.91-1.47Q13.91-2.20 14.43-2.66Q14.95-3.13 15.73-3.13Q16.51-3.13 17.04-2.66Q17.56-2.20 17.56-1.47Q17.56-0.75 17.04-0.29Q16.51 0.18 15.73 0.18Q14.95 0.18 14.43-0.29Q13.91-0.75 13.91-1.47Z"></path></g></g></svg>